# xmcd
#
# Track frame offsets: 
#        150
#        13410
#        22158
#        34735
#        55097
#        70942
#        84310
#        94722
#        115322
#        127338
#        137845
#        152859
#        166846
#        172605
#        186628
#        204529
#        219131
#        227919
#        242181
#        247102
#        261594
#        272739
#        287967
#        295663
#
# Disc length: 4151 seconds
#
# Revision: 1
# Processed by: cddbd v1.5PL3 Copyright (c) Steve Scherf et al.
# Submitted via: ExactAudioCopy v0.95a4
#
DISCID=71103518
DTITLE=Godfried Bomans - De Kopstukken CD1
DYEAR=1900
DGENRE=
TTITLE0=Mijn Verloofde Zwaait Af
TTITLE1=Bewaar Je Geld Voor Slechte Dagen
TTITLE2=Van Achteren Naar Voren Lezen
TTITLE3=Hoe Krijg Ik M'n Man Naar Zwemles?
TTITLE4=Stoppen Mannen Sokken?
TTITLE5=Vier Katers En Een Poes
TTITLE6=Zijn Er Uien Die Doen Lachen?
TTITLE7=Manner Zijn Leuker Met Elkaar
TTITLE8=Mijn Vader Speelt Geen Instrument
TTITLE9=Zijn Vogelverschrikkers Mannelijk?
TTITLE10=Sinterklaas Op Hol
TTITLE11=Thuiskomen Met Een Slecht Rapport
TTITLE12=Mijn Zoon Kan Niet Uit Bed Komen
TTITLE13=Vrouw Torpedeert Sterk Verhaal
TTITLE14=Waarom Juist Jeuk Op De Rug?
TTITLE15=Meedoen Aan De Olympische Spelen?
TTITLE16=Het Huilen Van De Kraamheer
TTITLE17=Vader Slaat Er Op Los
TTITLE18=Opstaan Voor De Dames?
TTITLE19=Het Hart En De Liefde
TTITLE20=Samen Winkelen
TTITLE21=De Man In De Modezaak
TTITLE22=Bontjassen
TTITLE23=Een Haan Is Mooier Dan Een Kip
EXTD=
EXTT0=
EXTT1=
EXTT2=
EXTT3=
EXTT4=
EXTT5=
EXTT6=
EXTT7=
EXTT8=
EXTT9=
EXTT10=
EXTT11=
EXTT12=
EXTT13=
EXTT14=
EXTT15=
EXTT16=
EXTT17=
EXTT18=
EXTT19=
EXTT20=
EXTT21=
EXTT22=
EXTT23=
PLAYORDER=
